<?xml version="1.0" encoding="UTF-8" standalone="no"?><svg xmlns="http://www.w3.org/2000/svg" xmlns:xlink="http://www.w3.org/1999/xlink" contentScriptType="application/ecmascript" contentStyleType="text/css" height="1172px" preserveAspectRatio="none" style="width:1799px;height:1172px;" version="1.1" viewBox="0 0 1799 1172" width="1799px" zoomAndPan="magnify"><defs><filter height="300%" id="frjp6bnfjtl" width="300%" x="-1" y="-1"><feGaussianBlur result="blurOut" stdDeviation="2.0"/><feColorMatrix in="blurOut" result="blurOut2" type="matrix" values="0 0 0 0 0 0 0 0 0 0 0 0 0 0 0 0 0 0 .4 0"/><feOffset dx="4.0" dy="4.0" in="blurOut2" result="blurOut3"/><feBlend in="SourceGraphic" in2="blurOut3" mode="normal"/></filter></defs><g><ellipse cx="544.7031" cy="20" fill="#000000" filter="url(#frjp6bnfjtl)" rx="10" ry="10" style="stroke: none; stroke-width: 1.0;"/><rect fill="#FEFECE" filter="url(#frjp6bnfjtl)" height="34.1328" rx="12.5" ry="12.5" style="stroke: #A80036; stroke-width: 1.5;" width="125" x="482.2031" y="50"/><text fill="#000000" font-family="sans-serif" font-size="12" lengthAdjust="spacingAndGlyphs" textLength="105" x="492.2031" y="71.6016">Machine controller</text><rect fill="#FEFECE" filter="url(#frjp6bnfjtl)" height="34.1328" rx="12.5" ry="12.5" style="stroke: #A80036; stroke-width: 1.5;" width="74" x="507.7031" y="148.1328"/><text fill="#000000" font-family="sans-serif" font-size="12" lengthAdjust="spacingAndGlyphs" textLength="54" x="517.7031" y="169.7344">Reconcile</text><polygon fill="#FEFECE" filter="url(#frjp6bnfjtl)" points="458.7031,202.2656,630.7031,202.2656,642.7031,214.2656,630.7031,226.2656,458.7031,226.2656,446.7031,214.2656,458.7031,202.2656" style="stroke: #A80036; stroke-width: 1.5;"/><text fill="#000000" font-family="sans-serif" font-size="11" lengthAdjust="spacingAndGlyphs" textLength="172" x="458.7031" y="218.4229">Machine has DeletionTimestamp</text><text fill="#000000" font-family="sans-serif" font-size="11" lengthAdjust="spacingAndGlyphs" textLength="18" x="428.7031" y="211.9453">yes</text><text fill="#000000" font-family="sans-serif" font-size="11" lengthAdjust="spacingAndGlyphs" textLength="14" x="642.7031" y="211.9453">no</text><polygon fill="#FEFECE" filter="url(#frjp6bnfjtl)" points="90,236.2656,228,236.2656,240,248.2656,228,260.2656,90,260.2656,78,248.2656,90,236.2656" style="stroke: #A80036; stroke-width: 1.5;"/><text fill="#000000" font-family="sans-serif" font-size="11" lengthAdjust="spacingAndGlyphs" textLength="138" x="90" y="252.4229">Machine has in-flight task</text><text fill="#000000" font-family="sans-serif" font-size="11" lengthAdjust="spacingAndGlyphs" textLength="18" x="60" y="245.9453">yes</text><text fill="#000000" font-family="sans-serif" font-size="11" lengthAdjust="spacingAndGlyphs" textLength="14" x="240" y="245.9453">no</text><rect fill="#90EE90" filter="url(#frjp6bnfjtl)" height="34.1328" rx="12.5" ry="12.5" style="stroke: #A80036; stroke-width: 1.5;" width="71" x="10" y="270.2656"/><text fill="#000000" font-family="sans-serif" font-size="12" lengthAdjust="spacingAndGlyphs" textLength="51" x="20" y="291.8672">Requeue</text><polygon fill="#FEFECE" filter="url(#frjp6bnfjtl)" points="205.5,270.2656,339.5,270.2656,351.5,282.2656,339.5,294.2656,205.5,294.2656,193.5,282.2656,205.5,270.2656" style="stroke: #A80036; stroke-width: 1.5;"/><text fill="#000000" font-family="sans-serif" font-size="11" lengthAdjust="spacingAndGlyphs" textLength="134" x="205.5" y="286.4229">Machine has a ProviderID</text><text fill="#000000" font-family="sans-serif" font-size="11" lengthAdjust="spacingAndGlyphs" textLength="18" x="175.5" y="279.9453">yes</text><text fill="#000000" font-family="sans-serif" font-size="11" lengthAdjust="spacingAndGlyphs" textLength="14" x="351.5" y="279.9453">no</text><rect fill="#EDF7DE" filter="url(#frjp6bnfjtl)" height="34.1328" rx="12.5" ry="12.5" style="stroke: #A80036; stroke-width: 1.5;" width="145" x="111" y="304.2656"/><text fill="#000000" font-family="sans-serif" font-size="12" lengthAdjust="spacingAndGlyphs" textLength="125" x="121" y="325.8672">Find VM by BIOS UUID</text><rect fill="#EDF7DE" filter="url(#frjp6bnfjtl)" height="34.1328" rx="12.5" ry="12.5" style="stroke: #A80036; stroke-width: 1.5;" width="167" x="278" y="304.2656"/><text fill="#000000" font-family="sans-serif" font-size="12" lengthAdjust="spacingAndGlyphs" textLength="147" x="288" y="325.8672">Find VM by instance UUID</text><polygon fill="#FEFECE" filter="url(#frjp6bnfjtl)" points="272.5,344.3984,284.5,356.3984,272.5,368.3984,260.5,356.3984,272.5,344.3984" style="stroke: #A80036; stroke-width: 1.5;"/><rect fill="#EDF7DE" filter="url(#frjp6bnfjtl)" height="34.1328" rx="12.5" ry="12.5" style="stroke: #A80036; stroke-width: 1.5;" width="79" x="233" y="436.876"/><text fill="#000000" font-family="sans-serif" font-size="12" lengthAdjust="spacingAndGlyphs" textLength="59" x="243" y="458.4775">Delete VM</text><rect fill="#EDF7DE" filter="url(#frjp6bnfjtl)" height="34.1328" rx="12.5" ry="12.5" style="stroke: #A80036; stroke-width: 1.5;" width="214" x="165.5" y="506.0088"/><text fill="#000000" font-family="sans-serif" font-size="12" lengthAdjust="spacingAndGlyphs" textLength="194" x="175.5" y="527.6104">Assign delete TaskRef to Machine</text><rect fill="#90EE90" filter="url(#frjp6bnfjtl)" height="34.1328" rx="12.5" ry="12.5" style="stroke: #A80036; stroke-width: 1.5;" width="71" x="237" y="575.1416"/><text fill="#000000" font-family="sans-serif" font-size="12" lengthAdjust="spacingAndGlyphs" textLength="51" x="247" y="596.7432">Requeue</text><polygon fill="#FEFECE" filter="url(#frjp6bnfjtl)" points="247,388.3984,298,388.3984,310,400.3984,298,412.3984,247,412.3984,235,400.3984,247,388.3984" style="stroke: #A80036; stroke-width: 1.5;"/><text fill="#000000" font-family="sans-serif" font-size="11" lengthAdjust="spacingAndGlyphs" textLength="18" x="276.5" y="423.0332">yes</text><text fill="#000000" font-family="sans-serif" font-size="11" lengthAdjust="spacingAndGlyphs" textLength="51" x="247" y="404.5557">VM exists</text><polygon fill="#FEFECE" filter="url(#frjp6bnfjtl)" points="272.5,633.752,284.5,645.752,272.5,657.752,260.5,645.752,272.5,633.752" style="stroke: #A80036; stroke-width: 1.5;"/><polygon fill="#FEFECE" filter="url(#frjp6bnfjtl)" points="159,663.752,171,675.752,159,687.752,147,675.752,159,663.752" style="stroke: #A80036; stroke-width: 1.5;"/><polygon fill="#FEFECE" filter="url(#frjp6bnfjtl)" points="861.4063,236.2656,999.4063,236.2656,1011.4063,248.2656,999.4063,260.2656,861.4063,260.2656,849.4063,248.2656,861.4063,236.2656" style="stroke: #A80036; stroke-width: 1.5;"/><text fill="#000000" font-family="sans-serif" font-size="11" lengthAdjust="spacingAndGlyphs" textLength="138" x="861.4063" y="252.4229">Machine has in-flight task</text><text fill="#000000" font-family="sans-serif" font-size="11" lengthAdjust="spacingAndGlyphs" textLength="18" x="831.4063" y="245.9453">yes</text><text fill="#000000" font-family="sans-serif" font-size="11" lengthAdjust="spacingAndGlyphs" textLength="14" x="1011.4063" y="245.9453">no</text><rect fill="#90EE90" filter="url(#frjp6bnfjtl)" height="34.1328" rx="12.5" ry="12.5" style="stroke: #A80036; stroke-width: 1.5;" width="71" x="495" y="270.2656"/><text fill="#000000" font-family="sans-serif" font-size="12" lengthAdjust="spacingAndGlyphs" textLength="51" x="505" y="291.8672">Requeue</text><polygon fill="#FEFECE" filter="url(#frjp6bnfjtl)" points="1263.3125,270.2656,1397.3125,270.2656,1409.3125,282.2656,1397.3125,294.2656,1263.3125,294.2656,1251.3125,282.2656,1263.3125,270.2656" style="stroke: #A80036; stroke-width: 1.5;"/><text fill="#000000" font-family="sans-serif" font-size="11" lengthAdjust="spacingAndGlyphs" textLength="134" x="1263.3125" y="286.4229">Machine has a ProviderID</text><text fill="#000000" font-family="sans-serif" font-size="11" lengthAdjust="spacingAndGlyphs" textLength="18" x="1233.3125" y="279.9453">yes</text><text fill="#000000" font-family="sans-serif" font-size="11" lengthAdjust="spacingAndGlyphs" textLength="14" x="1409.3125" y="279.9453">no</text><rect fill="#EDF7DE" filter="url(#frjp6bnfjtl)" height="34.1328" rx="12.5" ry="12.5" style="stroke: #A80036; stroke-width: 1.5;" width="145" x="1168.8125" y="304.2656"/><text fill="#000000" font-family="sans-serif" font-size="12" lengthAdjust="spacingAndGlyphs" textLength="125" x="1178.8125" y="325.8672">Find VM by BIOS UUID</text><rect fill="#EDF7DE" filter="url(#frjp6bnfjtl)" height="34.1328" rx="12.5" ry="12.5" style="stroke: #A80036; stroke-width: 1.5;" width="167" x="1335.8125" y="304.2656"/><text fill="#000000" font-family="sans-serif" font-size="12" lengthAdjust="spacingAndGlyphs" textLength="147" x="1345.8125" y="325.8672">Find VM by instance UUID</text><polygon fill="#FEFECE" filter="url(#frjp6bnfjtl)" points="1330.3125,344.3984,1342.3125,356.3984,1330.3125,368.3984,1318.3125,356.3984,1330.3125,344.3984" style="stroke: #A80036; stroke-width: 1.5;"/><polygon fill="#FEFECE" filter="url(#frjp6bnfjtl)" points="1304.8125,388.3984,1355.8125,388.3984,1367.8125,400.3984,1355.8125,412.3984,1304.8125,412.3984,1292.8125,400.3984,1304.8125,388.3984" style="stroke: #A80036; stroke-width: 1.5;"/><text fill="#000000" font-family="sans-serif" font-size="11" lengthAdjust="spacingAndGlyphs" textLength="51" x="1304.8125" y="404.5557">VM exists</text><text fill="#000000" font-family="sans-serif" font-size="11" lengthAdjust="spacingAndGlyphs" textLength="18" x="1274.8125" y="398.0781">yes</text><text fill="#000000" font-family="sans-serif" font-size="11" lengthAdjust="spacingAndGlyphs" textLength="14" x="1367.8125" y="398.0781">no</text><polygon fill="#FEFECE" filter="url(#frjp6bnfjtl)" points="854.625,422.3984,1079.625,422.3984,1091.625,434.3984,1079.625,446.3984,854.625,446.3984,842.625,434.3984,854.625,422.3984" style="stroke: #A80036; stroke-width: 1.5;"/><text fill="#000000" font-family="sans-serif" font-size="11" lengthAdjust="spacingAndGlyphs" textLength="225" x="854.625" y="438.5557">VM metadata matches calculated metadata</text><text fill="#000000" font-family="sans-serif" font-size="11" lengthAdjust="spacingAndGlyphs" textLength="14" x="828.625" y="432.0781">no</text><text fill="#000000" font-family="sans-serif" font-size="11" lengthAdjust="spacingAndGlyphs" textLength="18" x="1091.625" y="432.0781">yes</text><rect fill="#EDF7DE" filter="url(#frjp6bnfjtl)" height="34.1328" rx="12.5" ry="12.5" style="stroke: #A80036; stroke-width: 1.5;" width="258" x="606" y="456.3984"/><text fill="#000000" font-family="sans-serif" font-size="12" lengthAdjust="spacingAndGlyphs" textLength="238" x="616" y="478">Reconfigure VM with calculated metadata</text><rect fill="#EDF7DE" filter="url(#frjp6bnfjtl)" height="34.1328" rx="12.5" ry="12.5" style="stroke: #A80036; stroke-width: 1.5;" width="243" x="613.5" y="525.5313"/><text fill="#000000" font-family="sans-serif" font-size="12" lengthAdjust="spacingAndGlyphs" textLength="223" x="623.5" y="547.1328">Assign reconfigure TaskRef to Machine</text><rect fill="#90EE90" filter="url(#frjp6bnfjtl)" height="34.1328" rx="12.5" ry="12.5" style="stroke: #A80036; stroke-width: 1.5;" width="71" x="699.5" y="594.6641"/><text fill="#000000" font-family="sans-serif" font-size="12" lengthAdjust="spacingAndGlyphs" textLength="51" x="709.5" y="616.2656">Requeue</text><rect fill="#EDF7DE" filter="url(#frjp6bnfjtl)" height="34.1328" rx="12.5" ry="12.5" style="stroke: #A80036; stroke-width: 1.5;" width="325" x="1036.75" y="456.3984"/><text fill="#000000" font-family="sans-serif" font-size="12" lengthAdjust="spacingAndGlyphs" textLength="305" x="1046.75" y="478">Update Machine status with MAC addresses from VM</text><polygon fill="#FEFECE" filter="url(#frjp6bnfjtl)" points="1158.25,525.5313,1240.25,525.5313,1252.25,537.5313,1240.25,549.5313,1158.25,549.5313,1146.25,537.5313,1158.25,525.5313" style="stroke: #A80036; stroke-width: 1.5;"/><text fill="#000000" font-family="sans-serif" font-size="11" lengthAdjust="spacingAndGlyphs" textLength="82" x="1158.25" y="541.6885">VM powered on</text><text fill="#000000" font-family="sans-serif" font-size="11" lengthAdjust="spacingAndGlyphs" textLength="14" x="1132.25" y="535.2109">no</text><text fill="#000000" font-family="sans-serif" font-size="11" lengthAdjust="spacingAndGlyphs" textLength="18" x="1252.25" y="535.2109">yes</text><rect fill="#EDF7DE" filter="url(#frjp6bnfjtl)" height="34.1328" rx="12.5" ry="12.5" style="stroke: #A80036; stroke-width: 1.5;" width="95" x="953.5" y="559.5313"/><text fill="#000000" font-family="sans-serif" font-size="12" lengthAdjust="spacingAndGlyphs" textLength="75" x="963.5" y="581.1328">Power on VM</text><rect fill="#EDF7DE" filter="url(#frjp6bnfjtl)" height="34.1328" rx="12.5" ry="12.5" style="stroke: #A80036; stroke-width: 1.5;" width="214" x="894" y="628.6641"/><text fill="#000000" font-family="sans-serif" font-size="12" lengthAdjust="spacingAndGlyphs" textLength="194" x="904" y="650.2656">Assign power TaskRef to Machine</text><rect fill="#90EE90" filter="url(#frjp6bnfjtl)" height="34.1328" rx="12.5" ry="12.5" style="stroke: #A80036; stroke-width: 1.5;" width="71" x="965.5" y="697.7969"/><text fill="#000000" font-family="sans-serif" font-size="12" lengthAdjust="spacingAndGlyphs" textLength="51" x="975.5" y="719.3984">Requeue</text><polygon fill="#FEFECE" filter="url(#frjp6bnfjtl)" points="1343.5,559.5313,1451.5,559.5313,1463.5,571.5313,1451.5,583.5313,1343.5,583.5313,1331.5,571.5313,1343.5,559.5313" style="stroke: #A80036; stroke-width: 1.5;"/><text fill="#000000" font-family="sans-serif" font-size="11" lengthAdjust="spacingAndGlyphs" textLength="108" x="1343.5" y="575.6885">VM has IP addresses</text><text fill="#000000" font-family="sans-serif" font-size="11" lengthAdjust="spacingAndGlyphs" textLength="18" x="1313.5" y="569.2109">yes</text><text fill="#000000" font-family="sans-serif" font-size="11" lengthAdjust="spacingAndGlyphs" textLength="14" x="1463.5" y="569.2109">no</text><rect fill="#EDF7DE" filter="url(#frjp6bnfjtl)" height="34.1328" rx="12.5" ry="12.5" style="stroke: #A80036; stroke-width: 1.5;" width="309" x="1138" y="593.5313"/><text fill="#000000" font-family="sans-serif" font-size="12" lengthAdjust="spacingAndGlyphs" textLength="289" x="1148" y="615.1328">Update Machine status with IP addresses from VM</text><rect fill="#90EE90" filter="url(#frjp6bnfjtl)" height="34.1328" rx="12.5" ry="12.5" style="stroke: #A80036; stroke-width: 1.5;" width="71" x="1467" y="593.5313"/><text fill="#000000" font-family="sans-serif" font-size="12" lengthAdjust="spacingAndGlyphs" textLength="51" x="1477" y="615.1328">Requeue</text><polygon fill="#FEFECE" filter="url(#frjp6bnfjtl)" points="1397.5,633.6641,1409.5,645.6641,1397.5,657.6641,1385.5,645.6641,1397.5,633.6641" style="stroke: #A80036; stroke-width: 1.5;"/><polygon fill="#FEFECE" filter="url(#frjp6bnfjtl)" points="1199.25,737.9297,1211.25,749.9297,1199.25,761.9297,1187.25,749.9297,1199.25,737.9297" style="stroke: #A80036; stroke-width: 1.5;"/><polygon fill="#FEFECE" filter="url(#frjp6bnfjtl)" points="967.125,767.9297,979.125,779.9297,967.125,791.9297,955.125,779.9297,967.125,767.9297" style="stroke: #A80036; stroke-width: 1.5;"/><rect fill="#EDF7DE" filter="url(#frjp6bnfjtl)" height="34.1328" rx="12.5" ry="12.5" style="stroke: #A80036; stroke-width: 1.5;" width="211" x="1548" y="422.3984"/><text fill="#000000" font-family="sans-serif" font-size="12" lengthAdjust="spacingAndGlyphs" textLength="191" x="1558" y="444">Clone template to create new VM</text><rect fill="#EDF7DE" filter="url(#frjp6bnfjtl)" height="34.1328" rx="12.5" ry="12.5" style="stroke: #A80036; stroke-width: 1.5;" width="208" x="1549.5" y="491.5313"/><text fill="#000000" font-family="sans-serif" font-size="12" lengthAdjust="spacingAndGlyphs" textLength="188" x="1559.5" y="513.1328">Assign clone TaskRef to Machine</text><rect fill="#90EE90" filter="url(#frjp6bnfjtl)" height="34.1328" rx="12.5" ry="12.5" style="stroke: #A80036; stroke-width: 1.5;" width="71" x="1618" y="560.6641"/><text fill="#000000" font-family="sans-serif" font-size="12" lengthAdjust="spacingAndGlyphs" textLength="51" x="1628" y="582.2656">Requeue</text><polygon fill="#FEFECE" filter="url(#frjp6bnfjtl)" points="1330.3125,797.9297,1342.3125,809.9297,1330.3125,821.9297,1318.3125,809.9297,1330.3125,797.9297" style="stroke: #A80036; stroke-width: 1.5;"/><polygon fill="#FEFECE" filter="url(#frjp6bnfjtl)" points="930.4063,827.9297,942.4063,839.9297,930.4063,851.9297,918.4063,839.9297,930.4063,827.9297" style="stroke: #A80036; stroke-width: 1.5;"/><polygon fill="#FEFECE" filter="url(#frjp6bnfjtl)" points="544.7031,857.9297,556.7031,869.9297,544.7031,881.9297,532.7031,869.9297,544.7031,857.9297" style="stroke: #A80036; stroke-width: 1.5;"/><rect fill="#EDF7DE" filter="url(#frjp6bnfjtl)" height="34.1328" rx="12.5" ry="12.5" style="stroke: #A80036; stroke-width: 1.5;" width="259" x="415.2031" y="901.9297"/><text fill="#000000" font-family="sans-serif" font-size="12" lengthAdjust="spacingAndGlyphs" textLength="239" x="425.2031" y="923.5313">Machine state patched back to API server</text><polygon fill="#FEFECE" filter="url(#frjp6bnfjtl)" points="544.7031,104.1328,556.7031,116.1328,544.7031,128.1328,532.7031,116.1328,544.7031,104.1328" style="stroke: #A80036; stroke-width: 1.5;"/><polygon fill="#FEFECE" filter="url(#frjp6bnfjtl)" points="486.2031,956.0625,603.2031,956.0625,615.2031,968.0625,603.2031,980.0625,486.2031,980.0625,474.2031,968.0625,486.2031,956.0625" style="stroke: #A80036; stroke-width: 1.5;"/><text fill="#000000" font-family="sans-serif" font-size="11" lengthAdjust="spacingAndGlyphs" textLength="117" x="486.2031" y="972.2197">Reconcile is requeued</text><text fill="#000000" font-family="sans-serif" font-size="11" lengthAdjust="spacingAndGlyphs" textLength="18" x="615.2031" y="965.7422">yes</text><polygon fill="#FEFECE" filter="url(#frjp6bnfjtl)" points="504.7031,1021.3379,584.7031,1021.3379,596.7031,1033.3379,584.7031,1045.3379,504.7031,1045.3379,492.7031,1033.3379,504.7031,1021.3379" style="stroke: #A80036; stroke-width: 1.5;"/><text fill="#000000" font-family="sans-serif" font-size="11" lengthAdjust="spacingAndGlyphs" textLength="80" x="504.7031" y="1037.4951">Error occurred</text><text fill="#000000" font-family="sans-serif" font-size="11" lengthAdjust="spacingAndGlyphs" textLength="18" x="474.7031" y="1031.0176">yes</text><text fill="#000000" font-family="sans-serif" font-size="11" lengthAdjust="spacingAndGlyphs" textLength="14" x="596.7031" y="1031.0176">no</text><rect fill="#FFC0CB" filter="url(#frjp6bnfjtl)" height="34.1328" rx="12.5" ry="12.5" style="stroke: #A80036; stroke-width: 1.5;" width="110" x="421.7031" y="1055.3379"/><text fill="#000000" font-family="sans-serif" font-size="12" lengthAdjust="spacingAndGlyphs" textLength="90" x="431.7031" y="1076.9395">Reconcile failed</text><rect fill="#ADD8E6" filter="url(#frjp6bnfjtl)" height="34.1328" rx="12.5" ry="12.5" style="stroke: #A80036; stroke-width: 1.5;" width="122" x="551.7031" y="1055.3379"/><text fill="#000000" font-family="sans-serif" font-size="12" lengthAdjust="spacingAndGlyphs" textLength="102" x="561.7031" y="1076.9395">Reconcile success</text><polygon fill="#FEFECE" filter="url(#frjp6bnfjtl)" points="544.7031,1095.4707,556.7031,1107.4707,544.7031,1119.4707,532.7031,1107.4707,544.7031,1095.4707" style="stroke: #A80036; stroke-width: 1.5;"/><ellipse cx="544.7031" cy="1150.4707" fill="#FFFFFF" filter="url(#frjp6bnfjtl)" rx="11" ry="11" style="stroke: #000000; stroke-width: 1.0;"/><ellipse cx="544.7031" cy="1150.4707" fill="#000000" rx="6" ry="6" style="stroke: #7F7F7F; stroke-width: 1.0;"/><line style="stroke: #A80036; stroke-width: 1.5;" x1="544.7031" x2="544.7031" y1="30" y2="50"/><polygon fill="#A80036" points="540.7031,40,544.7031,50,548.7031,40,544.7031,44" style="stroke: #A80036; stroke-width: 1.0;"/><line style="stroke: #A80036; stroke-width: 1.5;" x1="193.5" x2="183.5" y1="282.2656" y2="282.2656"/><line style="stroke: #A80036; stroke-width: 1.5;" x1="183.5" x2="183.5" y1="282.2656" y2="304.2656"/><polygon fill="#A80036" points="179.5,294.2656,183.5,304.2656,187.5,294.2656,183.5,298.2656" style="stroke: #A80036; stroke-width: 1.0;"/><line style="stroke: #A80036; stroke-width: 1.5;" x1="351.5" x2="361.5" y1="282.2656" y2="282.2656"/><line style="stroke: #A80036; stroke-width: 1.5;" x1="361.5" x2="361.5" y1="282.2656" y2="304.2656"/><polygon fill="#A80036" points="357.5,294.2656,361.5,304.2656,365.5,294.2656,361.5,298.2656" style="stroke: #A80036; stroke-width: 1.0;"/><line style="stroke: #A80036; stroke-width: 1.5;" x1="183.5" x2="183.5" y1="338.3984" y2="356.3984"/><line style="stroke: #A80036; stroke-width: 1.5;" x1="183.5" x2="260.5" y1="356.3984" y2="356.3984"/><polygon fill="#A80036" points="250.5,352.3984,260.5,356.3984,250.5,360.3984,254.5,356.3984" style="stroke: #A80036; stroke-width: 1.0;"/><line style="stroke: #A80036; stroke-width: 1.5;" x1="361.5" x2="361.5" y1="338.3984" y2="356.3984"/><line style="stroke: #A80036; stroke-width: 1.5;" x1="361.5" x2="284.5" y1="356.3984" y2="356.3984"/><polygon fill="#A80036" points="294.5,352.3984,284.5,356.3984,294.5,360.3984,290.5,356.3984" style="stroke: #A80036; stroke-width: 1.0;"/><line style="stroke: #A80036; stroke-width: 1.5;" x1="272.5" x2="272.5" y1="471.0088" y2="506.0088"/><polygon fill="#A80036" points="268.5,496.0088,272.5,506.0088,276.5,496.0088,272.5,500.0088" style="stroke: #A80036; stroke-width: 1.0;"/><line style="stroke: #A80036; stroke-width: 1.5;" x1="272.5" x2="272.5" y1="540.1416" y2="575.1416"/><polygon fill="#A80036" points="268.5,565.1416,272.5,575.1416,276.5,565.1416,272.5,569.1416" style="stroke: #A80036; stroke-width: 1.0;"/><line style="stroke: #A80036; stroke-width: 1.5;" x1="272.5" x2="272.5" y1="412.3984" y2="436.876"/><polygon fill="#A80036" points="268.5,426.876,272.5,436.876,276.5,426.876,272.5,430.876" style="stroke: #A80036; stroke-width: 1.0;"/><line style="stroke: #A80036; stroke-width: 1.5;" x1="310" x2="389.5" y1="400.3984" y2="400.3984"/><polygon fill="#A80036" points="385.5,513.0752,389.5,523.0752,393.5,513.0752,389.5,517.0752" style="stroke: #A80036; stroke-width: 1.5;"/><line style="stroke: #A80036; stroke-width: 1.5;" x1="389.5" x2="389.5" y1="400.3984" y2="645.752"/><line style="stroke: #A80036; stroke-width: 1.5;" x1="389.5" x2="284.5" y1="645.752" y2="645.752"/><polygon fill="#A80036" points="294.5,641.752,284.5,645.752,294.5,649.752,290.5,645.752" style="stroke: #A80036; stroke-width: 1.0;"/><line style="stroke: #A80036; stroke-width: 1.5;" x1="272.5" x2="272.5" y1="609.2744" y2="633.752"/><polygon fill="#A80036" points="268.5,623.752,272.5,633.752,276.5,623.752,272.5,627.752" style="stroke: #A80036; stroke-width: 1.0;"/><line style="stroke: #A80036; stroke-width: 1.5;" x1="272.5" x2="272.5" y1="368.3984" y2="388.3984"/><polygon fill="#A80036" points="268.5,378.3984,272.5,388.3984,276.5,378.3984,272.5,382.3984" style="stroke: #A80036; stroke-width: 1.0;"/><line style="stroke: #A80036; stroke-width: 1.5;" x1="78" x2="45.5" y1="248.2656" y2="248.2656"/><line style="stroke: #A80036; stroke-width: 1.5;" x1="45.5" x2="45.5" y1="248.2656" y2="270.2656"/><polygon fill="#A80036" points="41.5,260.2656,45.5,270.2656,49.5,260.2656,45.5,264.2656" style="stroke: #A80036; stroke-width: 1.0;"/><line style="stroke: #A80036; stroke-width: 1.5;" x1="240" x2="272.5" y1="248.2656" y2="248.2656"/><line style="stroke: #A80036; stroke-width: 1.5;" x1="272.5" x2="272.5" y1="248.2656" y2="270.2656"/><polygon fill="#A80036" points="268.5,260.2656,272.5,270.2656,276.5,260.2656,272.5,264.2656" style="stroke: #A80036; stroke-width: 1.0;"/><line style="stroke: #A80036; stroke-width: 1.5;" x1="45.5" x2="45.5" y1="304.3984" y2="675.752"/><line style="stroke: #A80036; stroke-width: 1.5;" x1="45.5" x2="147" y1="675.752" y2="675.752"/><polygon fill="#A80036" points="137,671.752,147,675.752,137,679.752,141,675.752" style="stroke: #A80036; stroke-width: 1.0;"/><line style="stroke: #A80036; stroke-width: 1.5;" x1="272.5" x2="272.5" y1="657.752" y2="675.752"/><line style="stroke: #A80036; stroke-width: 1.5;" x1="272.5" x2="171" y1="675.752" y2="675.752"/><polygon fill="#A80036" points="181,671.752,171,675.752,181,679.752,177,675.752" style="stroke: #A80036; stroke-width: 1.0;"/><line style="stroke: #A80036; stroke-width: 1.5;" x1="1251.3125" x2="1241.3125" y1="282.2656" y2="282.2656"/><line style="stroke: #A80036; stroke-width: 1.5;" x1="1241.3125" x2="1241.3125" y1="282.2656" y2="304.2656"/><polygon fill="#A80036" points="1237.3125,294.2656,1241.3125,304.2656,1245.3125,294.2656,1241.3125,298.2656" style="stroke: #A80036; stroke-width: 1.0;"/><line style="stroke: #A80036; stroke-width: 1.5;" x1="1409.3125" x2="1419.3125" y1="282.2656" y2="282.2656"/><line style="stroke: #A80036; stroke-width: 1.5;" x1="1419.3125" x2="1419.3125" y1="282.2656" y2="304.2656"/><polygon fill="#A80036" points="1415.3125,294.2656,1419.3125,304.2656,1423.3125,294.2656,1419.3125,298.2656" style="stroke: #A80036; stroke-width: 1.0;"/><line style="stroke: #A80036; stroke-width: 1.5;" x1="1241.3125" x2="1241.3125" y1="338.3984" y2="356.3984"/><line style="stroke: #A80036; stroke-width: 1.5;" x1="1241.3125" x2="1318.3125" y1="356.3984" y2="356.3984"/><polygon fill="#A80036" points="1308.3125,352.3984,1318.3125,356.3984,1308.3125,360.3984,1312.3125,356.3984" style="stroke: #A80036; stroke-width: 1.0;"/><line style="stroke: #A80036; stroke-width: 1.5;" x1="1419.3125" x2="1419.3125" y1="338.3984" y2="356.3984"/><line style="stroke: #A80036; stroke-width: 1.5;" x1="1419.3125" x2="1342.3125" y1="356.3984" y2="356.3984"/><polygon fill="#A80036" points="1352.3125,352.3984,1342.3125,356.3984,1352.3125,360.3984,1348.3125,356.3984" style="stroke: #A80036; stroke-width: 1.0;"/><line style="stroke: #A80036; stroke-width: 1.5;" x1="735" x2="735" y1="490.5313" y2="525.5313"/><polygon fill="#A80036" points="731,515.5313,735,525.5313,739,515.5313,735,519.5313" style="stroke: #A80036; stroke-width: 1.0;"/><line style="stroke: #A80036; stroke-width: 1.5;" x1="735" x2="735" y1="559.6641" y2="594.6641"/><polygon fill="#A80036" points="731,584.6641,735,594.6641,739,584.6641,735,588.6641" style="stroke: #A80036; stroke-width: 1.0;"/><line style="stroke: #A80036; stroke-width: 1.5;" x1="1001" x2="1001" y1="593.6641" y2="628.6641"/><polygon fill="#A80036" points="997,618.6641,1001,628.6641,1005,618.6641,1001,622.6641" style="stroke: #A80036; stroke-width: 1.0;"/><line style="stroke: #A80036; stroke-width: 1.5;" x1="1001" x2="1001" y1="662.7969" y2="697.7969"/><polygon fill="#A80036" points="997,687.7969,1001,697.7969,1005,687.7969,1001,691.7969" style="stroke: #A80036; stroke-width: 1.0;"/><line style="stroke: #A80036; stroke-width: 1.5;" x1="1331.5" x2="1292.5" y1="571.5313" y2="571.5313"/><line style="stroke: #A80036; stroke-width: 1.5;" x1="1292.5" x2="1292.5" y1="571.5313" y2="593.5313"/><polygon fill="#A80036" points="1288.5,583.5313,1292.5,593.5313,1296.5,583.5313,1292.5,587.5313" style="stroke: #A80036; stroke-width: 1.0;"/><line style="stroke: #A80036; stroke-width: 1.5;" x1="1463.5" x2="1502.5" y1="571.5313" y2="571.5313"/><line style="stroke: #A80036; stroke-width: 1.5;" x1="1502.5" x2="1502.5" y1="571.5313" y2="593.5313"/><polygon fill="#A80036" points="1498.5,583.5313,1502.5,593.5313,1506.5,583.5313,1502.5,587.5313" style="stroke: #A80036; stroke-width: 1.0;"/><line style="stroke: #A80036; stroke-width: 1.5;" x1="1292.5" x2="1292.5" y1="627.6641" y2="645.6641"/><line style="stroke: #A80036; stroke-width: 1.5;" x1="1292.5" x2="1385.5" y1="645.6641" y2="645.6641"/><polygon fill="#A80036" points="1375.5,641.6641,1385.5,645.6641,1375.5,649.6641,1379.5,645.6641" style="stroke: #A80036; stroke-width: 1.0;"/><line style="stroke: #A80036; stroke-width: 1.5;" x1="1502.5" x2="1502.5" y1="627.6641" y2="645.6641"/><line style="stroke: #A80036; stroke-width: 1.5;" x1="1502.5" x2="1409.5" y1="645.6641" y2="645.6641"/><polygon fill="#A80036" points="1419.5,641.6641,1409.5,645.6641,1419.5,649.6641,1415.5,645.6641" style="stroke: #A80036; stroke-width: 1.0;"/><line style="stroke: #A80036; stroke-width: 1.5;" x1="1146.25" x2="1001" y1="537.5313" y2="537.5313"/><line style="stroke: #A80036; stroke-width: 1.5;" x1="1001" x2="1001" y1="537.5313" y2="559.5313"/><polygon fill="#A80036" points="997,549.5313,1001,559.5313,1005,549.5313,1001,553.5313" style="stroke: #A80036; stroke-width: 1.0;"/><line style="stroke: #A80036; stroke-width: 1.5;" x1="1252.25" x2="1397.5" y1="537.5313" y2="537.5313"/><line style="stroke: #A80036; stroke-width: 1.5;" x1="1397.5" x2="1397.5" y1="537.5313" y2="559.5313"/><polygon fill="#A80036" points="1393.5,549.5313,1397.5,559.5313,1401.5,549.5313,1397.5,553.5313" style="stroke: #A80036; stroke-width: 1.0;"/><line style="stroke: #A80036; stroke-width: 1.5;" x1="1001" x2="1001" y1="731.9297" y2="749.9297"/><line style="stroke: #A80036; stroke-width: 1.5;" x1="1001" x2="1187.25" y1="749.9297" y2="749.9297"/><polygon fill="#A80036" points="1177.25,745.9297,1187.25,749.9297,1177.25,753.9297,1181.25,749.9297" style="stroke: #A80036; stroke-width: 1.0;"/><line style="stroke: #A80036; stroke-width: 1.5;" x1="1397.5" x2="1397.5" y1="657.6641" y2="749.9297"/><line style="stroke: #A80036; stroke-width: 1.5;" x1="1397.5" x2="1211.25" y1="749.9297" y2="749.9297"/><polygon fill="#A80036" points="1221.25,745.9297,1211.25,749.9297,1221.25,753.9297,1217.25,749.9297" style="stroke: #A80036; stroke-width: 1.0;"/><line style="stroke: #A80036; stroke-width: 1.5;" x1="1199.25" x2="1199.25" y1="490.5313" y2="525.5313"/><polygon fill="#A80036" points="1195.25,515.5313,1199.25,525.5313,1203.25,515.5313,1199.25,519.5313" style="stroke: #A80036; stroke-width: 1.0;"/><line style="stroke: #A80036; stroke-width: 1.5;" x1="842.625" x2="735" y1="434.3984" y2="434.3984"/><line style="stroke: #A80036; stroke-width: 1.5;" x1="735" x2="735" y1="434.3984" y2="456.3984"/><polygon fill="#A80036" points="731,446.3984,735,456.3984,739,446.3984,735,450.3984" style="stroke: #A80036; stroke-width: 1.0;"/><line style="stroke: #A80036; stroke-width: 1.5;" x1="1091.625" x2="1199.25" y1="434.3984" y2="434.3984"/><line style="stroke: #A80036; stroke-width: 1.5;" x1="1199.25" x2="1199.25" y1="434.3984" y2="456.3984"/><polygon fill="#A80036" points="1195.25,446.3984,1199.25,456.3984,1203.25,446.3984,1199.25,450.3984" style="stroke: #A80036; stroke-width: 1.0;"/><line style="stroke: #A80036; stroke-width: 1.5;" x1="735" x2="735" y1="628.7969" y2="779.9297"/><line style="stroke: #A80036; stroke-width: 1.5;" x1="735" x2="955.125" y1="779.9297" y2="779.9297"/><polygon fill="#A80036" points="945.125,775.9297,955.125,779.9297,945.125,783.9297,949.125,779.9297" style="stroke: #A80036; stroke-width: 1.0;"/><line style="stroke: #A80036; stroke-width: 1.5;" x1="1199.25" x2="1199.25" y1="761.9297" y2="779.9297"/><line style="stroke: #A80036; stroke-width: 1.5;" x1="1199.25" x2="979.125" y1="779.9297" y2="779.9297"/><polygon fill="#A80036" points="989.125,775.9297,979.125,779.9297,989.125,783.9297,985.125,779.9297" style="stroke: #A80036; stroke-width: 1.0;"/><line style="stroke: #A80036; stroke-width: 1.5;" x1="1653.5" x2="1653.5" y1="456.5313" y2="491.5313"/><polygon fill="#A80036" points="1649.5,481.5313,1653.5,491.5313,1657.5,481.5313,1653.5,485.5313" style="stroke: #A80036; stroke-width: 1.0;"/><line style="stroke: #A80036; stroke-width: 1.5;" x1="1653.5" x2="1653.5" y1="525.6641" y2="560.6641"/><polygon fill="#A80036" points="1649.5,550.6641,1653.5,560.6641,1657.5,550.6641,1653.5,554.6641" style="stroke: #A80036; stroke-width: 1.0;"/><line style="stroke: #A80036; stroke-width: 1.5;" x1="1292.8125" x2="967.125" y1="400.3984" y2="400.3984"/><line style="stroke: #A80036; stroke-width: 1.5;" x1="967.125" x2="967.125" y1="400.3984" y2="422.3984"/><polygon fill="#A80036" points="963.125,412.3984,967.125,422.3984,971.125,412.3984,967.125,416.3984" style="stroke: #A80036; stroke-width: 1.0;"/><line style="stroke: #A80036; stroke-width: 1.5;" x1="1367.8125" x2="1653.5" y1="400.3984" y2="400.3984"/><line style="stroke: #A80036; stroke-width: 1.5;" x1="1653.5" x2="1653.5" y1="400.3984" y2="422.3984"/><polygon fill="#A80036" points="1649.5,412.3984,1653.5,422.3984,1657.5,412.3984,1653.5,416.3984" style="stroke: #A80036; stroke-width: 1.0;"/><line style="stroke: #A80036; stroke-width: 1.5;" x1="967.125" x2="967.125" y1="791.9297" y2="809.9297"/><line style="stroke: #A80036; stroke-width: 1.5;" x1="967.125" x2="1318.3125" y1="809.9297" y2="809.9297"/><polygon fill="#A80036" points="1308.3125,805.9297,1318.3125,809.9297,1308.3125,813.9297,1312.3125,809.9297" style="stroke: #A80036; stroke-width: 1.0;"/><line style="stroke: #A80036; stroke-width: 1.5;" x1="1653.5" x2="1653.5" y1="594.7969" y2="809.9297"/><line style="stroke: #A80036; stroke-width: 1.5;" x1="1653.5" x2="1342.3125" y1="809.9297" y2="809.9297"/><polygon fill="#A80036" points="1352.3125,805.9297,1342.3125,809.9297,1352.3125,813.9297,1348.3125,809.9297" style="stroke: #A80036; stroke-width: 1.0;"/><line style="stroke: #A80036; stroke-width: 1.5;" x1="1330.3125" x2="1330.3125" y1="368.3984" y2="388.3984"/><polygon fill="#A80036" points="1326.3125,378.3984,1330.3125,388.3984,1334.3125,378.3984,1330.3125,382.3984" style="stroke: #A80036; stroke-width: 1.0;"/><line style="stroke: #A80036; stroke-width: 1.5;" x1="849.4063" x2="530.5" y1="248.2656" y2="248.2656"/><line style="stroke: #A80036; stroke-width: 1.5;" x1="530.5" x2="530.5" y1="248.2656" y2="270.2656"/><polygon fill="#A80036" points="526.5,260.2656,530.5,270.2656,534.5,260.2656,530.5,264.2656" style="stroke: #A80036; stroke-width: 1.0;"/><line style="stroke: #A80036; stroke-width: 1.5;" x1="1011.4063" x2="1330.3125" y1="248.2656" y2="248.2656"/><line style="stroke: #A80036; stroke-width: 1.5;" x1="1330.3125" x2="1330.3125" y1="248.2656" y2="270.2656"/><polygon fill="#A80036" points="1326.3125,260.2656,1330.3125,270.2656,1334.3125,260.2656,1330.3125,264.2656" style="stroke: #A80036; stroke-width: 1.0;"/><line style="stroke: #A80036; stroke-width: 1.5;" x1="530.5" x2="530.5" y1="304.3984" y2="839.9297"/><line style="stroke: #A80036; stroke-width: 1.5;" x1="530.5" x2="918.4063" y1="839.9297" y2="839.9297"/><polygon fill="#A80036" points="908.4063,835.9297,918.4063,839.9297,908.4063,843.9297,912.4063,839.9297" style="stroke: #A80036; stroke-width: 1.0;"/><line style="stroke: #A80036; stroke-width: 1.5;" x1="1330.3125" x2="1330.3125" y1="821.9297" y2="839.9297"/><line style="stroke: #A80036; stroke-width: 1.5;" x1="1330.3125" x2="942.4063" y1="839.9297" y2="839.9297"/><polygon fill="#A80036" points="952.4063,835.9297,942.4063,839.9297,952.4063,843.9297,948.4063,839.9297" style="stroke: #A80036; stroke-width: 1.0;"/><line style="stroke: #A80036; stroke-width: 1.5;" x1="446.7031" x2="159" y1="214.2656" y2="214.2656"/><line style="stroke: #A80036; stroke-width: 1.5;" x1="159" x2="159" y1="214.2656" y2="236.2656"/><polygon fill="#A80036" points="155,226.2656,159,236.2656,163,226.2656,159,230.2656" style="stroke: #A80036; stroke-width: 1.0;"/><line style="stroke: #A80036; stroke-width: 1.5;" x1="642.7031" x2="930.4063" y1="214.2656" y2="214.2656"/><line style="stroke: #A80036; stroke-width: 1.5;" x1="930.4063" x2="930.4063" y1="214.2656" y2="236.2656"/><polygon fill="#A80036" points="926.4063,226.2656,930.4063,236.2656,934.4063,226.2656,930.4063,230.2656" style="stroke: #A80036; stroke-width: 1.0;"/><line style="stroke: #A80036; stroke-width: 1.5;" x1="159" x2="159" y1="687.752" y2="869.9297"/><line style="stroke: #A80036; stroke-width: 1.5;" x1="159" x2="532.7031" y1="869.9297" y2="869.9297"/><polygon fill="#A80036" points="522.7031,865.9297,532.7031,869.9297,522.7031,873.9297,526.7031,869.9297" style="stroke: #A80036; stroke-width: 1.0;"/><line style="stroke: #A80036; stroke-width: 1.5;" x1="930.4063" x2="930.4063" y1="851.9297" y2="869.9297"/><line style="stroke: #A80036; stroke-width: 1.5;" x1="930.4063" x2="556.7031" y1="869.9297" y2="869.9297"/><polygon fill="#A80036" points="566.7031,865.9297,556.7031,869.9297,566.7031,873.9297,562.7031,869.9297" style="stroke: #A80036; stroke-width: 1.0;"/><line style="stroke: #A80036; stroke-width: 1.5;" x1="544.7031" x2="544.7031" y1="182.2656" y2="202.2656"/><polygon fill="#A80036" points="540.7031,192.2656,544.7031,202.2656,548.7031,192.2656,544.7031,196.2656" style="stroke: #A80036; stroke-width: 1.0;"/><line style="stroke: #A80036; stroke-width: 1.5;" x1="544.7031" x2="544.7031" y1="881.9297" y2="901.9297"/><polygon fill="#A80036" points="540.7031,891.9297,544.7031,901.9297,548.7031,891.9297,544.7031,895.9297" style="stroke: #A80036; stroke-width: 1.0;"/><line style="stroke: #A80036; stroke-width: 1.5;" x1="544.7031" x2="544.7031" y1="128.1328" y2="148.1328"/><polygon fill="#A80036" points="540.7031,138.1328,544.7031,148.1328,548.7031,138.1328,544.7031,142.1328" style="stroke: #A80036; stroke-width: 1.0;"/><line style="stroke: #A80036; stroke-width: 1.5;" x1="615.2031" x2="1773" y1="968.0625" y2="968.0625"/><polygon fill="#A80036" points="1769,544.5977,1773,534.5977,1777,544.5977,1773,540.5977" style="stroke: #A80036; stroke-width: 1.5;"/><line style="stroke: #A80036; stroke-width: 1.5;" x1="1773" x2="1773" y1="116.1328" y2="968.0625"/><line style="stroke: #A80036; stroke-width: 1.5;" x1="1773" x2="556.7031" y1="116.1328" y2="116.1328"/><polygon fill="#A80036" points="566.7031,112.1328,556.7031,116.1328,566.7031,120.1328,562.7031,116.1328" style="stroke: #A80036; stroke-width: 1.0;"/><line style="stroke: #A80036; stroke-width: 1.5;" x1="544.7031" x2="544.7031" y1="936.0625" y2="956.0625"/><polygon fill="#A80036" points="540.7031,946.0625,544.7031,956.0625,548.7031,946.0625,544.7031,950.0625" style="stroke: #A80036; stroke-width: 1.0;"/><line style="stroke: #A80036; stroke-width: 1.5;" x1="544.7031" x2="544.7031" y1="84.1328" y2="104.1328"/><polygon fill="#A80036" points="540.7031,94.1328,544.7031,104.1328,548.7031,94.1328,544.7031,98.1328" style="stroke: #A80036; stroke-width: 1.0;"/><line style="stroke: #A80036; stroke-width: 1.5;" x1="492.7031" x2="476.7031" y1="1033.3379" y2="1033.3379"/><line style="stroke: #A80036; stroke-width: 1.5;" x1="476.7031" x2="476.7031" y1="1033.3379" y2="1055.3379"/><polygon fill="#A80036" points="472.7031,1045.3379,476.7031,1055.3379,480.7031,1045.3379,476.7031,1049.3379" style="stroke: #A80036; stroke-width: 1.0;"/><line style="stroke: #A80036; stroke-width: 1.5;" x1="596.7031" x2="612.7031" y1="1033.3379" y2="1033.3379"/><line style="stroke: #A80036; stroke-width: 1.5;" x1="612.7031" x2="612.7031" y1="1033.3379" y2="1055.3379"/><polygon fill="#A80036" points="608.7031,1045.3379,612.7031,1055.3379,616.7031,1045.3379,612.7031,1049.3379" style="stroke: #A80036; stroke-width: 1.0;"/><line style="stroke: #A80036; stroke-width: 1.5;" x1="476.7031" x2="476.7031" y1="1089.4707" y2="1107.4707"/><line style="stroke: #A80036; stroke-width: 1.5;" x1="476.7031" x2="532.7031" y1="1107.4707" y2="1107.4707"/><polygon fill="#A80036" points="522.7031,1103.4707,532.7031,1107.4707,522.7031,1111.4707,526.7031,1107.4707" style="stroke: #A80036; stroke-width: 1.0;"/><line style="stroke: #A80036; stroke-width: 1.5;" x1="612.7031" x2="612.7031" y1="1089.4707" y2="1107.4707"/><line style="stroke: #A80036; stroke-width: 1.5;" x1="612.7031" x2="556.7031" y1="1107.4707" y2="1107.4707"/><polygon fill="#A80036" points="566.7031,1103.4707,556.7031,1107.4707,566.7031,1111.4707,562.7031,1107.4707" style="stroke: #A80036; stroke-width: 1.0;"/><line style="stroke: #A80036; stroke-width: 1.5;" x1="544.7031" x2="544.7031" y1="980.0625" y2="1021.3379"/><polygon fill="#A80036" points="540.7031,1011.3379,544.7031,1021.3379,548.7031,1011.3379,544.7031,1015.3379" style="stroke: #A80036; stroke-width: 1.0;"/><text fill="#000000" font-family="sans-serif" font-size="11" lengthAdjust="spacingAndGlyphs" textLength="14" x="548.7031" y="1001.5176">no</text><line style="stroke: #A80036; stroke-width: 1.5;" x1="544.7031" x2="544.7031" y1="1119.4707" y2="1139.4707"/><polygon fill="#A80036" points="540.7031,1129.4707,544.7031,1139.4707,548.7031,1129.4707,544.7031,1133.4707" style="stroke: #A80036; stroke-width: 1.0;"/><!--
@startuml machine-controller-reconcile

start;

:Machine controller;

repeat
  :Reconcile;

  if (Machine has DeletionTimestamp) then (yes)
    if (Machine has in-flight task) then (yes)
      #LightGreen:Requeue;
    else (no)
      if (Machine has a ProviderID) then (yes)
        #edf7de:Find VM by BIOS UUID;
      else (no)
        #edf7de:Find VM by instance UUID;
      endif
      if (VM exists) then (yes)
        #edf7de:Delete VM;
        #edf7de:Assign delete TaskRef to Machine;
        #LightGreen:Requeue;
      endif
    endif
  else (no)
    if (Machine has in-flight task) then (yes)
      #LightGreen:Requeue;
    else (no)
      if (Machine has a ProviderID) then (yes)
        #edf7de:Find VM by BIOS UUID;
      else (no)
        #edf7de:Find VM by instance UUID;
      endif
      if (VM exists) then (yes)
        if (VM metadata matches calculated metadata) then (no)
          #edf7de:Reconfigure VM with calculated metadata;
          #edf7de:Assign reconfigure TaskRef to Machine;
          #LightGreen:Requeue;
        else (yes)
          #edf7de:Update Machine status with MAC addresses from VM;
          if (VM powered on) then (no)
            #edf7de:Power on VM;
            #edf7de:Assign power TaskRef to Machine;
            #LightGreen:Requeue;
          else (yes)
            if (VM has IP addresses) then (yes)
              #edf7de:Update Machine status with IP addresses from VM;
            else (no)
              #LightGreen:Requeue;
            endif
          endif
        endif
      else (no)
        #edf7de:Clone template to create new VM;
        #edf7de:Assign clone TaskRef to Machine;
        #LightGreen:Requeue;
      endif
    endif
  endif
  #edf7de:Machine state patched back to API server;
repeat while (Reconcile is requeued) is (yes)
-> no;
if (Error occurred) then (yes)
  #Pink:Reconcile failed;
else (no)
  #LightBlue:Reconcile success;
endif
stop;

@enduml

PlantUML version 1.2019.09(Mon Aug 26 11:19:51 CDT 2019)
(GPL source distribution)
Java Runtime: Java(TM) SE Runtime Environment
JVM: Java HotSpot(TM) 64-Bit Server VM
Java Version: 1.8.0_191-b12
Operating System: Mac OS X
OS Version: 10.14.6
Default Encoding: UTF-8
Language: en
Country: US
--></g></svg>